<svg version="1.1" xmlns="http://www.w3.org/2000/svg" xmlns:xlink="http://www.w3.org/1999/xlink" width="340.07472" height="116.05839" viewBox="654.29461,302.44162,340.07472,116.05839"><g fill="#b9113f" fill-rule="nonzero" stroke="none" stroke-width="1" stroke-linecap="butt" stroke-linejoin="miter" stroke-miterlimit="10" stroke-dasharray="" stroke-dashoffset="0" font-family="none" font-weight="none" font-size="none" text-anchor="none" style="mix-blend-mode: normal"><path d="M675.3746,325.17959v0v0c1.64219,0 3.00015,0.53687 4.07389,1.61061v0v0c1.07374,1.07374 1.61061,2.36854 1.61061,3.8844v0v0c0,2.14747 -0.94742,4.04231 -2.84225,5.68449v0v0c-1.89483,1.64219 -3.74229,2.46328 -5.54238,2.46328v0v0c-1.64219,0 -3.00015,-0.53687 -4.07389,-1.61061v0v0c-1.07374,-1.07374 -1.61061,-2.36854 -1.61061,-3.8844v0v0c0,-2.14747 0.94742,-4.04231 2.84225,-5.68449v0v0c1.89483,-1.64219 3.74229,-2.46328 5.54238,-2.46328M660.92652,360.47081h11.74795v0c1.54744,0 2.32117,0.44213 2.32117,1.32638v0v0c-2.05273,6.82139 -4.24758,16.01132 -6.58454,27.56979v0v0c-2.33696,11.59005 -3.50544,18.52197 -3.50544,20.79577v0v0c0,2.52644 0.94742,3.78966 2.84225,3.78966v0v0c2.02115,0 4.75287,-1.4527 8.19514,-4.35811v0v0c3.4107,-2.90541 6.69507,-7.51616 9.85312,-13.83226v0l5.49501,-10.84791l2.08431,1.1369l-5.49501,10.84791v0c-7.453,14.40071 -15.93237,21.60107 -25.4381,21.60107v0v0c-5.43185,0 -8.14777,-3.66334 -8.14777,-10.99002v0v0c0,-3.4107 1.1369,-10.56368 3.4107,-21.45896v0l-2.08431,-1.1369v0c4.80024,-9.60047 7.57932,-16.99031 8.33725,-22.16952v0h-3.4107zM739.84621,370.70289v0v0c0,-5.30553 -1.38954,-7.95829 -4.16863,-7.95829v0v0c-3.91598,0 -8.57411,1.98957 -13.97438,5.96872v0v0c-5.36869,3.97914 -11.08476,10.2005 -17.14822,18.66408v0l-5.87397,29.98569h-11.36898l6.06346,-31.31208l-2.08431,-1.1369v0c4.80024,-9.60047 7.57932,-16.99031 8.33725,-22.16952v0h-3.4107l0.37897,-2.2738h11.74795v0c1.51586,0 2.2738,0.44213 2.2738,1.32638v0v0c-1.51586,5.05288 -3.03173,10.99002 -4.54759,17.81141v0v0c10.8637,-13.51646 20.7326,-20.27469 29.60673,-20.27469v0v0c4.16863,0 7.67406,1.51586 10.51631,4.54759v0v0c2.84225,3.03173 4.26337,7.07403 4.26337,12.12692v0v0c0,3.4107 -1.07374,9.26888 -3.22121,17.57455v0v0c-2.14747,8.27409 -3.22121,13.6112 -3.22121,16.01132v0v0c0,3.4107 1.07374,5.11604 3.22121,5.11604v0v0c1.89483,0 3.75808,-1.16848 5.58975,-3.50544v0v0c1.83167,-2.33696 4.76866,-7.48458 8.81096,-15.44287v0l5.49501,-10.84791l2.08431,1.1369l-5.30553,10.46894v0c-4.67392,9.09519 -8.27409,15.03232 -10.80053,17.81141v0v0c-2.52644,2.77908 -6.3161,4.16863 -11.36898,4.16863v0v0c-5.93714,0 -8.9057,-3.47386 -8.9057,-10.42157v0v0c0,-3.28437 1.16848,-9.20572 3.50544,-17.76404v0v0c2.33696,-8.52674 3.50544,-15.0639 3.50544,-19.6115zM815.68681,370.70289v0v0c0,-5.30553 -1.38954,-7.95829 -4.16863,-7.95829v0v0c-3.91598,0 -8.55832,1.98957 -13.927,5.96872v0v0c-5.36869,3.97914 -11.08476,10.2005 -17.14822,18.66408v0l-5.87397,29.98569h-11.41635l6.06346,-31.31208l-2.08431,-1.1369v0c4.83182,-9.60047 7.62669,-16.99031 8.38463,-22.16952v0h-3.4107l0.37897,-2.2738h11.74795v0c1.51586,0 2.2738,0.44213 2.2738,1.32638v0v0c-1.51586,5.05288 -3.03173,10.99002 -4.54759,17.81141v0v0c10.8637,-13.51646 20.71681,-20.27469 29.55936,-20.27469v0v0c4.16863,0 7.68985,1.51586 10.56368,4.54759v0v0c2.84225,3.03173 4.26337,7.07403 4.26337,12.12692v0v0c0,3.4107 -1.07374,9.26888 -3.22121,17.57455v0v0c-2.14747,8.27409 -3.22121,13.6112 -3.22121,16.01132v0v0c0,3.4107 1.07374,5.11604 3.22121,5.11604v0v0c1.89483,0 3.75808,-1.16848 5.58975,-3.50544v0v0c1.83167,-2.33696 4.76866,-7.48458 8.81096,-15.44287v0l5.49501,-10.84791l2.08431,1.1369l-5.30553,10.46894v0c-4.67392,9.09519 -8.27409,15.03232 -10.80053,17.81141v0v0c-2.52644,2.77908 -6.33189,4.16863 -11.41635,4.16863v0v0c-5.93714,0 -8.9057,-3.47386 -8.9057,-10.42157v0v0c0,-3.28437 1.16848,-9.20572 3.50544,-17.76404v0v0c2.33696,-8.52674 3.50544,-15.0639 3.50544,-19.6115zM901.80686,360.47081h3.03173l-6.63191,34.15432v0c-1.26322,6.94771 -1.89483,11.62163 -1.89483,14.02175v0v0c0,4.92656 1.51586,7.38984 4.54759,7.38984v0v0c6.18978,0 13.15328,-7.7846 20.89051,-23.35379v0l3.97914,-7.76881l2.08431,1.1369l-4.16863,7.81618v0c-3.78966,7.32668 -7.31089,12.91643 -10.56368,16.76925v0v0c-3.22121,3.85282 -5.74765,6.12662 -7.57932,6.82139v0v0c-1.83167,0.69477 -4.07389,1.04216 -6.72665,1.04216v0v0c-8.08461,0 -12.37956,-4.73708 -12.88485,-14.21123v0v0c-2.65276,4.29495 -5.90556,7.73722 -9.75838,10.32683v0v0c-3.85282,2.5896 -7.87934,3.8844 -12.07955,3.8844v0v0c-7.32668,0 -13.04275,-2.24222 -17.14822,-6.72665v0v0c-4.10547,-4.48443 -6.1582,-10.2005 -6.1582,-17.14822v0v0c0,-9.37941 3.47386,-17.60613 10.42157,-24.68017v0v0c6.94771,-7.07403 14.98495,-10.61105 24.11172,-10.61105v0v0c3.28437,0 6.25294,0.69477 8.9057,2.08431v0v0c2.65276,1.38954 4.67392,2.7475 6.06346,4.07389v0v0c1.38954,1.32638 2.14747,1.98957 2.2738,1.98957v0v0c0.50529,0 1.83167,-1.16848 3.97914,-3.50544v0v0c2.14747,-2.33696 3.91598,-3.50544 5.30553,-3.50544v0M886.45873,395.19358l4.92656,-25.24862v0c-4.16863,-4.80024 -9.53731,-7.20036 -16.10606,-7.20036v0v0c-5.96872,0 -11.38477,3.50544 -16.24817,10.51631v0v0c-4.8634,7.01087 -7.2951,14.82705 -7.2951,23.44853v0v0c0,5.43185 1.1369,9.85312 3.4107,13.26381v0v0c2.2738,3.4107 5.24236,5.11604 8.9057,5.11604v0v0c4.57917,0 8.98466,-1.86325 13.21644,-5.58975v0v0c4.23179,-3.7265 7.2951,-8.49516 9.18993,-14.30597zM938.99291,363.31305v0v0c14.77968,-23.52748 22.16952,-39.27036 22.16952,-47.22865v0v0c0,-3.78966 -2.21064,-6.63191 -6.63191,-8.52674v0v0c-4.42127,-1.89483 -7.95829,-2.84225 -10.61105,-2.84225v0l-0.37897,0.37897v0c-0.88425,1.01058 -1.42112,3.78966 -1.61061,8.33725v0v0c-0.18948,4.54759 -0.47371,11.65321 -0.85267,21.31684v0v0c-0.37897,9.69522 -1.07374,19.21674 -2.08431,28.56457M931.41358,409.40481l-1.51586,7.95829h-11.36898l4.54759,-23.30642v0c3.03173,-15.69551 5.46343,-30.99627 7.2951,-45.90227v0v0c1.83167,-14.93758 3.12647,-25.69074 3.8844,-32.25949v0v0c0.75793,-6.56875 1.70535,-10.61105 2.84225,-12.12692v0v0c0.63161,-0.88425 2.90541,-1.32638 6.82139,-1.32638v0v0c1.1369,0 2.52644,0.1579 4.16863,0.47371v0v0c1.64219,0.31581 3.75808,0.85267 6.34768,1.61061v0v0c2.5896,0.75793 4.73708,2.14747 6.44242,4.16863v0v0c1.70535,2.02115 2.55802,4.48443 2.55802,7.38984v0v0c0,9.22151 -8.40042,26.85922 -25.20125,52.91314v0v0c-1.01058,8.33725 -2.33696,16.87978 -3.97914,25.62758v0l-0.56845,3.22121v0c3.78966,-6.72665 9.06361,-13.69015 15.82184,-20.89051v0v0c6.75823,-7.20036 13.87963,-13.4533 21.36421,-18.75882v0v0c2.02115,-1.51586 3.78966,-2.2738 5.30553,-2.2738v0v0c1.51586,0 2.2738,0.50529 2.2738,1.51586v0v0c-0.37897,3.66334 -0.72635,6.1582 -1.04216,7.48458v0v0c-0.31581,1.32638 -1.1369,2.5896 -2.46328,3.78966v0v0c-1.32638,1.20006 -3.31595,1.86325 -5.96872,1.98957v0v0c-1.01058,0 -1.89483,-0.37897 -2.65276,-1.1369v0v0c-5.33711,1.89483 -11.16371,6.06346 -17.47981,12.50588v0v0c3.4107,3.66334 6.1582,7.68985 8.24251,12.07955v0v0c2.08431,4.35811 3.44228,7.95829 4.07389,10.80053v0v0c0.63161,2.84225 1.4527,5.24236 2.46328,7.20036v0v0c1.01058,1.95799 2.41591,2.93699 4.216,2.93699v0v0c2.2738,0 4.20021,-0.31581 5.77923,-0.94742v0v0c1.57903,-0.63161 3.28437,-2.21064 5.11604,-4.73708v0v0c1.83167,-2.52644 3.12647,-4.45285 3.8844,-5.77923v0v0c0.75793,-1.32638 2.40012,-4.51601 4.92656,-9.56889v0l4.73708,-9.14256l2.08431,1.1369l-4.54759,8.95307v0c-5.1792,10.23209 -8.84254,16.48503 -10.99002,18.75882v0v0c-3.03173,3.15805 -6.69507,4.73708 -10.99002,4.73708v0v0c-3.5686,0 -6.58454,-0.85267 -9.04782,-2.55802v0v0c-2.46328,-1.70535 -4.32653,-3.63176 -5.58975,-5.77923v0v0c-1.26322,-2.14747 -3.00015,-5.27395 -5.21078,-9.37941v0v0c-2.21064,-4.10547 -4.32653,-7.56353 -6.34768,-10.3742v0v0c-4.29495,5.71607 -7.70564,12.04796 -10.23209,18.99568z" id="CompoundPath 1"/></g></svg>